<svg xmlns="http://www.w3.org/2000/svg" class="plot-90694bce283bf" fill="currentColor" font-family="system-ui, sans-serif" font-size="10"
    text-anchor="middle" width="640" height="400" viewBox="0 0 640 400"
    style="display: block;background: var(--color-bg); height: auto; height: intrinsic; max-width: 100%;">
    <g aria-label="y-axis" aria-description="↑ cases" transform="translate(40,0)" fill="none" text-anchor="end"
        font-variant="tabular-nums">
        <g class="tick" opacity="1" transform="translate(0,370)">
            <line stroke="currentColor" x2="-6"></line><text fill="currentColor" x="-9" dy="0.32em">0</text>
        </g>
        <g class="tick" opacity="1" transform="translate(0,324.20522814859135)">
            <line stroke="currentColor" x2="-6"></line><text fill="currentColor" x="-9" dy="0.32em">1</text>
        </g>
        <g class="tick" opacity="1" transform="translate(0,278.4104562971827)">
            <line stroke="currentColor" x2="-6"></line><text fill="currentColor" x="-9" dy="0.32em">2</text>
        </g>
        <g class="tick" opacity="1" transform="translate(0,232.615684445774)">
            <line stroke="currentColor" x2="-6"></line><text fill="currentColor" x="-9" dy="0.32em">3</text>
        </g>
        <g class="tick" opacity="1" transform="translate(0,186.82091259436538)">
            <line stroke="currentColor" x2="-6"></line><text fill="currentColor" x="-9" dy="0.32em">4</text>
        </g>
        <g class="tick" opacity="1" transform="translate(0,141.02614074295673)">
            <line stroke="currentColor" x2="-6"></line><text fill="currentColor" x="-9" dy="0.32em">5</text>
        </g>
        <g class="tick" opacity="1" transform="translate(0,95.23136889154803)">
            <line stroke="currentColor" x2="-6"></line><text fill="currentColor" x="-9" dy="0.32em">6</text>
        </g>
        <g class="tick" opacity="1" transform="translate(0,49.436597040139375)">
            <line stroke="currentColor" x2="-6"></line><text fill="currentColor" x="-9" dy="0.32em">7</text>
        </g><text fill="currentColor" font-variant="normal" transform="translate(-40,20)" dy="-1em"
            text-anchor="start">↑ cases</text>
    </g>
    <g aria-label="x-axis" aria-description="day →" transform="translate(0,370)" fill="none" text-anchor="middle"
        font-variant="tabular-nums">
        <g class="tick" opacity="1" transform="translate(40,0)">
            <line stroke="currentColor" y2="6"></line><text fill="currentColor" y="9" dy="0.71em">0</text>
        </g>
        <g class="tick" opacity="1" transform="translate(98.58585858585857,0)">
            <line stroke="currentColor" y2="6"></line><text fill="currentColor" y="9" dy="0.71em">10</text>
        </g>
        <g class="tick" opacity="1" transform="translate(157.17171717171718,0)">
            <line stroke="currentColor" y2="6"></line><text fill="currentColor" y="9" dy="0.71em">20</text>
        </g>
        <g class="tick" opacity="1" transform="translate(215.75757575757575,0)">
            <line stroke="currentColor" y2="6"></line><text fill="currentColor" y="9" dy="0.71em">30</text>
        </g>
        <g class="tick" opacity="1" transform="translate(274.34343434343435,0)">
            <line stroke="currentColor" y2="6"></line><text fill="currentColor" y="9" dy="0.71em">40</text>
        </g>
        <g class="tick" opacity="1" transform="translate(332.92929292929296,0)">
            <line stroke="currentColor" y2="6"></line><text fill="currentColor" y="9" dy="0.71em">50</text>
        </g>
        <g class="tick" opacity="1" transform="translate(391.5151515151515,0)">
            <line stroke="currentColor" y2="6"></line><text fill="currentColor" y="9" dy="0.71em">60</text>
        </g>
        <g class="tick" opacity="1" transform="translate(450.1010101010101,0)">
            <line stroke="currentColor" y2="6"></line><text fill="currentColor" y="9" dy="0.71em">70</text>
        </g>
        <g class="tick" opacity="1" transform="translate(508.68686868686865,0)">
            <line stroke="currentColor" y2="6"></line><text fill="currentColor" y="9" dy="0.71em">80</text>
        </g>
        <g class="tick" opacity="1" transform="translate(567.2727272727273,0)">
            <line stroke="currentColor" y2="6"></line><text fill="currentColor" y="9" dy="0.71em">90</text>
        </g><text fill="currentColor" transform="translate(640,30)" dy="-0.32em" text-anchor="end">day →</text>
    </g>
    <g aria-label="line" fill="none" stroke-width="1.5" stroke-linejoin="round" stroke-linecap="round">
        <path stroke="#f28e2c"
            d="M40,370C40,370,43.905723905723896,369.99999999999994,45.85858585858586,370C47.81144781144781,370,49.76431011804006,370.00117540330103,51.717171717171716,370C53.67003402376423,369.99882459627304,55.622895269165056,369.9941229800879,57.57575757575758,369.992947576361C59.528619174889215,369.9917721730598,61.48148148148147,369.9929475763609,63.43434343434343,369.992947576361C65.38720538720537,369.9929475763609,67.34006734006734,369.992947576361,69.29292929292929,369.992947576361C71.24579124579125,369.992947576361,73.19865461356981,369.99529837913093,75.15151515151516,369.992947576361C77.10437851929784,369.99059677018465,79.05723799604968,369.9800181298293,81.01010101010101,369.978842729083C82.96296190177588,369.9776673296142,84.91583729591031,369.9917720308435,86.86868686868686,369.985895152722C88.82156120194814,369.9800182000867,90.77442067805214,369.9600361587497,92.72727272727272,369.943580610888C94.68014458397695,369.9271248961202,96.63297717844986,369.9000906768246,98.58585858585857,369.8871612217759C100.53870108494897,369.8742320243276,102.49160795786749,369.8801084302661,104.44444444444444,369.8660039508589C106.39733186491985,369.85189910357843,108.35028113791931,369.83661539011206,110.30303030303031,369.80253213810784C112.25600506970554,369.76844494845744,114.20863007387838,369.6932196465421,116.16161616161617,369.66148366532775C118.11435401115708,369.62975171797876,120.06735810532483,369.6320983171239,122.020202020202,369.6121166998547C123.97308201171519,369.59213471344725,125.92597012985195,369.57097663075115,127.87878787878788,369.5415924634646C129.83169403957854,369.5122069658396,131.7844410460609,369.4475588710411,133.73737373737373,369.4358061088796C135.69016496203272,369.42405419806533,137.64311143751024,369.4745941981146,139.59595959595958,369.4710682270746C141.5488353436239,369.4675422062208,143.50177543715984,369.4028982294604,145.45454545454547,369.41464883796255C147.40749936019927,369.426400552995,149.36393719648973,369.6419476682112,151.3131313131313,369.5415924634646C153.26968886639875,369.440858148611,155.21536468292874,368.8947137207912,157.17171717171718,368.8081404050081C159.1211133674409,368.72187492196974,161.078521664465,369.058358941244,163.03030303030306,369.0197131141783C164.98424796720184,368.9810244477892,166.9353103393556,368.597659027994,168.88888888888889,368.5754104249209C170.84103529534977,368.55317813200986,172.79757266323855,368.9532661733289,174.74747474747474,368.88571706503717C176.70331462304017,368.81796225795017,178.65409940638983,368.4201269822701,180.60606060606062,368.1663698538586C182.5598249770675,367.9123783111666,184.51358991467913,367.6547528825353,186.46464646464648,367.362393559012C188.4193205215026,367.06949216413415,190.38479093129746,366.8563446435181,192.32323232323233,366.41031636774625C194.29095377084323,365.957550858235,196.21438727718734,365.1106052773071,198.18181818181816,364.65426288163394C200.12053336283148,364.2045810513092,202.08342206423958,363.9434341847866,204.040404040404,363.6810284194512C205.98918044780615,363.41972291389203,207.94358032298678,363.1837117463767,209.8989898989899,363.0815724101357C211.84931745381758,362.9796985294167,213.90271373454237,363.6905858271908,215.75757575757575,363.0674675628577C217.83314712616237,362.3702046868955,219.67287491231696,360.1564144726801,221.6161616161616,358.6526503648404C223.57879037670986,357.13391888724243,225.45023424386224,355.27712331541727,227.4747474747475,353.99805076309684C229.36513741499954,352.80371631821805,231.4823498950727,352.4448244072782,233.33333333333331,351.1277143420216C235.4150569305015,349.6464157813553,237.28180819852815,347.3790192559161,239.1919191919192,345.31651726348116C241.19163725096706,343.15725924373004,243.22098100644024,341.0748219007876,245.05050505050505,338.4262993681729C247.16869668739776,335.359885293482,248.51700075837286,328.6711751406159,250.90909090909093,327.8124017914698C252.63365834113958,327.1932727218552,254.99331810351413,328.75168998781373,256.7676767676768,330.1326491687026C259.0041213989396,331.87324356400165,260.8124836418197,338.4270978769549,262.6262626262626,338.24998877719776C264.774170306832,338.0402531925814,266.5546227851566,329.815698011156,268.48484848484844,325.492154414237C270.4614474179605,321.06473866575845,271.99361146397604,315.3268397098609,274.34343434343435,311.9867631455417C276.0795966706393,309.5189536984365,278.57297409873473,309.44787011475165,280.2020202020202,306.4858727071175C283.4128015612465,300.64790038495426,284.0295122522631,285.6319093452987,286.06060606060606,275.8219347247221C287.94605362719875,266.71541650250805,289.8386104929544,257.7470054797932,291.919191919192,249.56576151670512C293.7708894552496,242.28453277107906,295.3400397968381,234.33276499639416,297.77777777777777,229.07847084539443C299.4911184458035,225.38554079258893,301.881486537269,223.86112591427633,303.6363636363636,220.33346553302778C305.9263655639289,215.73009525882267,307.23882920830215,208.09391965188516,309.4949494949495,203.3935439521369C311.2618183336835,199.7124692313519,313.35063184036096,197.0503105181863,315.35353535353534,194.09139717228877C317.26101060604697,191.27346113867472,319.49921943600077,185.73450815200502,321.21212121212125,186.02342452926663C323.6517514397463,186.43491871827945,325.15457032367794,205.40407416132402,327.0707070707071,205.3823274183364C329.06328277377366,205.35971314940952,330.54073724274036,189.88001168383775,332.92929292929296,184.30968558498833C334.6547835202989,180.28568676155191,337.1339259373616,174.21110290971737,338.78787878787875,174.51386915040985C341.61258787659324,175.03094952036878,341.01887530232085,205.5210142883197,344.64646464646466,207.28648180086785C346.2656634541331,208.0745100532692,348.7409553936858,205.80771923307495,350.5050505050505,204.17636297606646C352.76873598716503,202.08300788916858,354.6152640072966,194.73580376703853,356.3636363636363,194.95884527988645C358.6733879148627,195.25350246685255,360.1024933942314,207.61732255243487,362.22222222222223,213.09767887940828C364.05089555936934,217.8255390475885,366.04788769267617,221.95179459328733,368.080808080808,226.01771898606617C369.9649042365396,229.78598879272064,371.57263415725794,234.44400851453693,373.939393939394,236.70214079915925C375.67076125463905,238.35404331187064,377.95668527617113,238.22180693115448,379.7979797979798,239.56542479659547C381.89563917905866,241.09611561582352,384.03654721181846,246.19256920743726,385.65656565656565,245.67282366797414C389.2183621922526,244.53010343049726,388.9274716351226,205.44611492834062,391.5151515151515,205.18485955644425C393.1991595343768,205.0148400170357,395.2458116015792,216.61458781483185,397.37373737373736,221.4900630098247C399.19794302998724,225.66965871940255,401.42877102296194,228.54087920723728,403.2323232323232,232.79509810315034C405.4010863278006,237.91077642598987,407.26321198445925,243.92064370275077,409.0909090909091,250.24984660968863C411.21241113631993,257.5964779883263,412.92283302722626,266.6404145597221,414.949494949495,274.355030607809C416.8382582861425,281.5447270183611,419.0096284484151,295.16941026871643,420.80808080808083,295.0891561064849C422.9877504368786,294.99189049971994,424.75683928292347,263.9721273517572,426.66666666666663,263.98796785847105C428.6667256681535,264.004556765045,430.0959905209184,288.97389934437007,432.52525252525254,298.1992749312862C434.2405840621054,304.71342517745796,435.7452827697108,311.1549200639121,438.3838383838384,314.48332111374964C440.059990552121,316.59770013488077,442.5122549659307,316.3478850629448,444.24242424242425,318.2845774551735C446.6135316022079,320.938714045876,447.8005570654705,327.12459410298186,450.1010101010101,330.0198103904785C451.85240273392617,332.2240112145265,453.9066295255424,333.64791369040523,455.9595959595959,334.86482543047515C457.8294173873975,335.97317655087477,459.87605513976234,336.36638439661374,461.81818181818187,337.19917765498593C463.7820204162388,338.04128108889984,465.6759616043287,339.38538192895,467.67676767676767,339.893203485086C469.58597488183096,340.3777764715521,471.60049459057706,339.9427291343943,473.5353535353536,340.2810867852313C475.50690783997203,340.62586152181314,477.4215638492762,341.65455556377754,479.3939393939394,341.9666160349536C481.3280377916559,342.2726204664755,483.46135587310897,341.3240969046671,485.2525252525252,342.1640838968458C487.4484019759349,343.1938624902546,489.29468243652934,346.1608281527353,491.11111111111114,348.74399515203777C493.2538233824519,351.79117432608507,494.50217925795863,357.9690138634166,496.96969696969694,359.51304604879897C498.6763574952064,360.58097709884674,500.9777020229233,360.36974652923186,502.82828282828285,359.78103814708123C504.9106523267776,359.1185929434196,506.6687006457194,355.41898711506985,508.68686868686865,355.21812005264474C510.5821362624011,355.02948520032095,512.5699093328407,357.28321252474456,514.5454545454546,358.14487586283195C516.4766404707689,358.9871912399991,518.4764719034681,359.48689032412193,520.4040404040404,360.34523203820163C522.3835780681318,361.22671549841436,524.253204366628,362.7454096185615,526.2626262626262,363.38482662661295C528.1648044250458,363.99011766669634,530.1640595691147,364.0988400598711,532.1212121212121,364.1958553450986C534.0698208537252,364.2924471165366,536.0329925952944,363.8495435784105,537.979797979798,363.9701777886504C539.9387925804615,364.0915673062655,541.8858058479638,364.9327390865058,543.838383838384,364.92930740355513C545.7915299189457,364.9258747221782,547.7373564326696,364.1237163670355,549.6969696969697,363.9490205177334C551.643172426865,363.775520192436,553.6227515323848,363.6101967952317,555.5555555555555,363.8784962813433C557.5293349066765,364.15248370027194,559.4418291102266,365.2496082306667,561.4141414141415,365.61339249653867C563.3482982913623,365.9701391630095,565.3205628892379,365.8979116301359,567.2727272727273,366.064747609435C569.2262877930852,366.23170290545943,571.1793480906276,366.4139510949683,573.1313131313132,366.6148366532774C575.085073647123,366.8159069920591,577.0348395388351,367.1037331387484,578.989898989899,367.27071205170495C580.9405732913708,367.43731643512405,582.8967032492334,367.4718186369848,584.8484848484849,367.61628081001624C586.8024295509335,367.7609030863035,588.755383677017,367.94083940619373,590.7070707070707,368.1381601593026C592.6611104170925,368.3357187746179,594.6104971414355,368.6341113317614,596.5656565656566,368.8010879813691C598.5162318081019,368.96767312770373,600.4716344641986,369.0185555969151,602.4242424242425,369.13960431604136C604.3773585021303,369.2606845350976,606.3293562572652,369.42050639195253,608.2828282828283,369.52748761618665C610.2350809243829,369.63440206127456,612.1881845834597,369.72025120556975,614.1414141414142,369.78137486719083C616.0939087657662,369.84247553006463,620,369.89421364541494,620,369.89421364541494">
        </path>
        <path stroke="#4e79a7"
            d="M40,369.86450102944025C40,369.86450102944025,43.90571338439695,369.90042874807233,45.85858585858586,369.9137733823711C47.81143729034759,369.92711787288,49.76430733626696,369.9353300278443,51.717171717171716,369.9445686029528C53.670031242002935,369.95380715508827,55.62290101847028,369.9712577317284,57.57575757575758,369.96920477941825C59.528624924253805,369.96715181576377,61.481476085847206,369.9343034783746,63.43434343434343,369.9322505147201C65.38719999163075,369.93019756241006,67.34009566483864,369.9640716917659,69.29292929292929,369.9568866911855C71.24581957220597,369.9497014821699,73.19862163461995,369.89837549003335,75.15151515151516,369.8891372059056C77.10434554238438,369.87989922039935,79.05723905723904,369.8973492647274,81.01010101010101,369.9014552941384C82.96296296296293,369.90556132354925,84.91585081329531,369.92198500557856,86.86868686868686,369.9137733823711C88.82157472039303,369.9055615413616,90.77438487556657,369.8645009749891,92.72727272727272,369.85218294120756C94.68010878266428,369.8398652341364,96.63646439173318,369.95831922442346,98.58585858585857,369.8398648529748C100.54221310497735,369.7209875394014,102.4883497498958,369.2225829975253,104.44444444444444,369.13773382371056C106.39409492062065,369.05316417961706,108.34996987592798,369.3122480015133,110.30303030303031,369.3286641913175C112.25569386230484,369.345077045302,114.2087714699766,369.2342261137053,116.16161616161617,369.2362785295722C118.11449537631078,369.2383309817224,120.06813643186872,369.3819638509835,122.020202020202,369.3409822795502C123.97386163872453,369.29996724312343,125.92569780450266,368.99810436500144,127.87878787878788,368.9899167649181C129.83142181676774,368.9817310770158,131.78386877507924,369.24553770154216,133.73737373737373,369.2917099266194C135.68959352657174,369.33785177588345,137.6434824380969,369.2321963707371,139.59595959595958,369.26707375015394C141.5492066473425,369.30196488228904,143.50132675027305,369.47341503888083,145.45454545454547,369.5011174265754C147.40705091649394,369.52880969839543,149.36060566282512,369.482622615149,151.3131313131313,369.4333679412955C153.26632980036752,369.3840962943675,155.21853164098104,369.23010656171385,157.17171717171718,369.2054833089905C159.12425576102285,369.18086821207334,161.0775777769658,369.2988889388831,163.03030303030306,369.28555088250306C164.98330172097604,369.272210958414,166.93587724667006,369.14080870391217,168.88888888888889,369.1254157354778C170.8416011982755,369.1100251262822,172.8071366487979,369.40326812809093,174.74747474747474,369.19316522075775C176.71319029275472,368.98031440298774,178.64033398763897,368.0531183079884,180.60606060606062,367.83817551516006C182.5463881926913,367.6260099848346,184.53057547899778,368.1553745346773,186.46464646464648,367.8936069122072C188.43705165862164,367.6266509307537,190.35083834822694,366.50644676401976,192.32323232323233,366.2183469125592C194.25731368092588,365.935843234833,196.29173189542047,366.6581640781964,198.18181818181816,366.15059742727925C200.20673127294907,365.6068241808087,202.02467523221588,363.18623955592113,204.040404040404,362.849349780914C205.9375767557248,362.53227434565804,207.96673984145207,364.0824935660059,209.8989898989899,363.9271825012758C211.8733724267402,363.7684848982543,213.78457559088508,362.3837076940396,215.75757575757575,361.83926654583206C217.69109734156476,361.3057193474875,219.66125415203948,360.69704927559644,221.6161616161616,360.6752072078413C223.56698659223966,360.65341075348834,225.61540600986035,362.15562087530697,227.4747474747475,361.7037675752723C229.54336708521365,361.20105593507213,231.31459027626988,357.4542993402531,233.33333333333331,357.2446196350326C235.22815425495196,357.0478112839647,237.52763598873602,360.71698577519504,239.1919191919192,360.02850757562425C241.9204138076442,358.89978798211973,242.9172251700558,348.50437795137833,245.05050505050505,343.6084959614268C246.87185356648416,339.4284971349581,249.0656784622841,332.22626189700526,250.90909090909093,332.33128618438417C253.00319538428525,332.45059308750575,254.8055796425888,347.64172094061615,256.7676767676768,347.6488289017545C258.7114750029916,347.65587057269965,259.8725745919827,334.54656661516833,262.6262626262626,332.6577155225509C264.28762522716283,331.5181287121064,266.74939303697914,333.5805251584149,268.48484848484844,332.6330793460855C270.83712283698674,331.3488905257273,272.3549375256499,323.651797873823,274.34343434343435,323.6039206715118C276.26308619054885,323.55770105525215,278.4335189341664,331.97303168162813,280.2020202020202,331.7461769933306C282.453760230738,331.45733480156804,283.3047420916175,318.7416182316217,286.06060606060606,316.57645133475285C287.72172396721584,315.27138056795894,290.14801326771715,316.8209692026734,291.919191919192,315.81272986432504C294.16386011724694,314.5349577000468,296.09274197721913,313.01712043804434,297.77777777777777,308.3479683953051C305.79778929125933,286.1249075389421,300.87086200639976,93.53208876330773,303.6363636363636,93.46507821986025C305.2964117811547,93.42485378928095,305.7209390200913,170.035416422851,309.4949494949495,170.69949143892865C311.1130419782957,170.98421104928786,313.3507366218527,157.7691730542542,315.35353535353534,157.72238548577263C317.2610968074515,157.67782276424404,319.57593354569383,169.59008558948273,321.21212121212125,169.2336389392366C326.60421516410725,168.0589608344968,321.138536648048,47.7626024840899,327.0707070707071,29.078431027504543C328.71706875040013,23.892992695281556,331.25528472985746,19.69920704084463,332.92929292929296,20C335.58281275548995,20.476795801220337,337.14950302472437,34.918724807429875,338.78787878787875,46.50852587678395C341.812663464903,67.90572514738668,342.09455651936355,114.43220728888502,344.64646464646466,138.8572333573829C346.3365680841157,155.03368582629457,348.4983189732141,165.99928936771246,350.5050505050505,179.02036004012177C352.40939946187495,191.37710131734136,354.0674880143858,214.9647975910767,356.3636363636363,215.1000404737185C358.11645251553045,215.20328115030662,360.1234302849681,194.71265103885543,362.22222222222223,194.6212187868443C364.0628471007793,194.54103338362881,365.9204868944272,205.45839531134249,368.080808080808,209.92028437186548C369.88842280350286,213.6536997582802,372.28857816013283,215.30917009259576,373.939393939394,219.7809140021469C376.79788169634116,227.52401009938387,377.4988511957616,244.04413173395696,379.7979797979798,253.66797473032187C381.54980868240506,261.0008947435569,383.5908942218746,266.7980874930959,385.65656565656565,272.75485244690026C387.5178386224437,278.1221947000813,389.2555153404502,283.74915311521346,391.5151515151515,287.86914670843083C393.2807241516889,291.088314480807,395.09316450517747,294.5614306848821,397.37373737373736,295.84510883910815C399.1318425029765,296.8347028040061,401.5733668272651,297.4012550941721,403.2323232323232,296.36246854488184C406.0078767680056,294.62450383953404,407.394982821738,280.80530694980126,409.0909090909091,280.97717634223164C411.6112008104479,281.23258898278004,411.2956808403973,311.0617507243695,414.949494949495,316.8597673641051C416.5684263834216,319.42875174925103,418.8031821953641,319.78975980817916,420.80808080808083,320.93705456913085C422.71392113875635,322.0276636466799,424.928958382707,322.04821751950755,426.66666666666663,323.63471589209354C429.01118103672553,325.7752179930142,430.4979869708272,330.6298635906972,432.52525252525254,333.809456772309C434.41356115115644,336.77110785871776,436.0992592704918,340.59257148580366,438.3838383838384,342.14264346173474C440.1405620271216,343.3345689560198,442.2764393213582,343.26110744018956,444.24242424242425,343.54074647614686C446.1825067468487,343.816701187397,448.3671302325851,344.71778052335304,450.1010101010101,343.8240625054991C452.45880430607053,342.608751570856,453.920204008072,334.81758857975564,455.9595959595959,334.69635912506374C457.83897379286617,334.5846415370263,459.7339265896329,339.8392375506665,461.81818181818187,341.80389603533536C463.66759202159164,343.54718514791284,465.6411025952641,345.01420426817685,467.67676767676767,346.0782726520844C469.5588495394964,347.0620611073918,471.5823331933117,347.43012830286904,473.5353535353536,348.1045981663646C475.4880571504043,348.77895864912006,477.4140014566278,349.72527810710176,479.3939393939394,350.1247646365284C481.32114831518396,350.51361218014057,483.3062252241569,350.27515251260616,485.2525252525252,350.5127844158587C487.2120385288924,350.75202957977206,489.1554341570829,351.2463892985573,491.11111111111114,351.5598219156387C493.0611742008023,351.87235480938506,495.01556889394107,352.133497751967,496.96969696969694,352.39129287134637C498.9212960746969,352.64875436043496,500.9202877142445,352.547548469167,502.82828282828285,353.1057419888433C504.8305550479227,353.691516747598,506.7334065728598,354.9849914505349,508.68686868686865,355.9204251500167C510.63913121545335,356.85528441673983,512.5566794425197,357.99582532208154,514.5454545454546,358.71663117884106C516.4648648296727,359.4122966527035,518.4368207599755,360.03802889587166,520.4040404040404,360.21327889911487C522.3429548623053,360.38600733141,524.3160289122096,359.68755593137917,526.2626262626262,359.7883048550865C528.2218342487585,359.8897064602411,530.1646684154903,360.5311203846777,532.1212121212121,360.8291833107502C534.0704198784973,361.12612866697236,536.0283212860679,361.30570264476796,537.979797979798,361.57442764882893C539.9340491335024,361.84353470550184,541.907447733856,361.9692033976367,543.838383838384,362.4428528692347C545.8142027782291,362.92751188754005,547.7155912172232,364.1317585754849,549.6969696969697,364.47533742763125C551.6228891440973,364.8092994645334,553.6121292246329,364.3292850923446,555.5555555555555,364.5307688246784C557.518039088725,364.7342283027224,559.4520117824883,365.54538755027085,561.4141414141415,365.7009872067855C563.3579083407537,365.8551306748043,565.3194963897307,365.51004908494605,567.2727272727273,365.47310257448044C569.2252205740338,365.436170015806,571.184806213562,365.3206798340968,573.1313131313132,365.4792616185968C575.0906139338218,365.63888572000656,577.0337556670307,366.1636502559127,578.989898989899,366.4339134566315C580.9395014801564,366.70327296776065,582.8926175359502,366.96571019839297,584.8484848484849,367.0990902211977C586.798359828939,367.2320615979841,588.7540806230096,367.2089273833372,590.7070707070707,367.2345891917574C592.6598045623523,367.2602476333946,594.6172887077877,367.11745644192547,596.5656565656566,367.2530663241065C598.5230543668828,367.38930470647034,600.4668465290174,367.9247390792459,602.4242424242425,368.0537420592324C604.3726121531907,368.18215016602517,606.3299889901776,368.04347667601303,608.2828282828283,368.029105882767C610.2357128969536,368.01473475600375,612.1885708008011,367.96443639893573,614.1414141414142,367.9675154416035C616.0942947072346,367.9705945429642,620,368.04758301511606,620,368.04758301511606">
        </path>
    </g>
</svg>
