<svg xmlns="http://www.w3.org/2000/svg" class="plot-5dfcc39b71257" fill="currentColor" font-family="system-ui, sans-serif" font-size="10"
    text-anchor="middle" width="640" height="400" viewBox="0 0 640 400"
    style="display: block;height: auto;height: intrinsic;max-width: 100%;">
    <g aria-label="y-axis" aria-description="↑ cases" transform="translate(40,0)" fill="none" text-anchor="end"
        font-variant="tabular-nums">
        <g class="tick" opacity="1" transform="translate(0,370)">
            <line stroke="currentColor" x2="-6"></line><text fill="currentColor" x="-9" dy="0.32em">0.0</text>
        </g>
        <g class="tick" opacity="1" transform="translate(0,335)">
            <line stroke="currentColor" x2="-6"></line><text fill="currentColor" x="-9" dy="0.32em">0.1</text>
        </g>
        <g class="tick" opacity="1" transform="translate(0,300)">
            <line stroke="currentColor" x2="-6"></line><text fill="currentColor" x="-9" dy="0.32em">0.2</text>
        </g>
        <g class="tick" opacity="1" transform="translate(0,265)">
            <line stroke="currentColor" x2="-6"></line><text fill="currentColor" x="-9" dy="0.32em">0.3</text>
        </g>
        <g class="tick" opacity="1" transform="translate(0,230)">
            <line stroke="currentColor" x2="-6"></line><text fill="currentColor" x="-9" dy="0.32em">0.4</text>
        </g>
        <g class="tick" opacity="1" transform="translate(0,195)">
            <line stroke="currentColor" x2="-6"></line><text fill="currentColor" x="-9" dy="0.32em">0.5</text>
        </g>
        <g class="tick" opacity="1" transform="translate(0,160)">
            <line stroke="currentColor" x2="-6"></line><text fill="currentColor" x="-9" dy="0.32em">0.6</text>
        </g>
        <g class="tick" opacity="1" transform="translate(0,125.00000000000001)">
            <line stroke="currentColor" x2="-6"></line><text fill="currentColor" x="-9" dy="0.32em">0.7</text>
        </g>
        <g class="tick" opacity="1" transform="translate(0,89.99999999999999)">
            <line stroke="currentColor" x2="-6"></line><text fill="currentColor" x="-9" dy="0.32em">0.8</text>
        </g>
        <g class="tick" opacity="1" transform="translate(0,54.99999999999999)">
            <line stroke="currentColor" x2="-6"></line><text fill="currentColor" x="-9" dy="0.32em">0.9</text>
        </g>
        <g class="tick" opacity="1" transform="translate(0,20)">
            <line stroke="currentColor" x2="-6"></line><text fill="currentColor" x="-9" dy="0.32em">1.0</text>
        </g><text fill="currentColor" font-variant="normal" transform="translate(-40,20)" dy="-1em"
            text-anchor="start">↑ cases</text>
    </g>
    <g aria-label="x-axis" transform="translate(0,370)" fill="none" text-anchor="middle" font-variant="tabular-nums">
        <g class="tick" opacity="1" transform="translate(40,0)">
            <line stroke="currentColor" y2="6"></line><text fill="currentColor" y="9" dy="0.71em">February</text>
        </g>
        <g class="tick" opacity="1" transform="translate(176.47058823529412,0)">
            <line stroke="currentColor" y2="6"></line><text fill="currentColor" y="9" dy="0.71em">March</text>
        </g>
        <g class="tick" opacity="1" transform="translate(327.56302521008405,0)">
            <line stroke="currentColor" y2="6"></line><text fill="currentColor" y="9" dy="0.71em">April</text>
        </g>
        <g class="tick" opacity="1" transform="translate(473.78151260504205,0)">
            <line stroke="currentColor" y2="6"></line><text fill="currentColor" y="9" dy="0.71em">May</text>
        </g>
    </g>
    <g aria-label="line" fill="none" stroke-width="1.5" stroke-linejoin="round" stroke-linecap="round">
        <path stroke="#f28e2c"
            d="M40,292.22222222222223C40,292.22222222222223,42.18194223018335,322.96312693518973,44.87394957983194,331.1111111111111C46.22840035592311,335.2106703088584,47.71561621414505,338.56604834425144,49.74789915966386,339.7530864197531C51.17230175453386,340.5850670840019,53.272612083262004,340.83185019633817,54.621848739495796,339.7530864197531C57.498013298581185,337.45348825252006,57.7766448022242,318.19369547366296,59.49579831932773,318.14814814814815C61.04382242964293,318.1071347323271,62.91022482147825,335.51618005876014,64.36974789915966,335.4320987654321C66.27611060602204,335.3222756016903,67.5535960730864,305.2072092181976,69.24369747899159,305.1851851851852C70.81199023642058,305.164748463849,71.39412215863051,326.3059647868282,74.11764705882354,331.1111111111111C75.47097195613931,333.4987978017804,77.60983919441868,335.8373759926016,78.99159663865547,335.4320987654321C81.28590691610587,334.75916466155593,82.3175221081722,318.1071347323271,83.8655462184874,318.14814814814815C85.58469973559095,318.1936954736629,86.63398261376338,339.44386858382904,88.73949579831933,339.7530864197531C90.14873197327252,339.96004829656374,91.77861320356718,331.4184713909812,93.61344537815125,331.1111111111111C95.10011084084017,330.8620736683331,97.00072949529427,333.5917536175274,98.48739495798318,335.4320987654321C100.32222713256726,337.7034399477367,101.99060956929011,344.3190845170996,103.36134453781513,344.0740740740741C105.77005889938792,343.6435312000669,106.13718383302472,314.0375394469694,108.23529411764706,313.82716049382714C109.64592441476452,313.68571562920135,111.48459383753499,326.79012345679007,113.10924369747899,326.7901234567901C114.73389355742299,326.7901234567902,116.59093987173246,319.2829470054834,117.98319327731093,313.82716049382714C120.19365716942949,305.1650742394119,120.30442265873324,286.7905639441075,122.85714285714286,279.25925925925924C124.21802769023024,275.24423312151197,126.36035746844979,274.5340903300709,127.73109243697479,270.61728395061726C130.13980679854762,263.73450354862484,130.5069317321844,248.26683425662927,132.60504201680672,240.37037037037038C134.01567231392423,235.06131141398888,136.13023281378156,233.95003288022212,137.47899159663865,227.4074074074074C141.17184735464346,209.4939209805962,140.74450244163913,123.70219501047292,142.3529411764706,123.7037037037037C143.99447616605073,123.70524344076254,145.79551214870565,231.74419276477238,147.2268907563025,231.7283950617284C149.23006753628601,231.7062865910926,148.55864203237707,20.24257528750232,152.10084033613447,20C153.4480945210205,19.907737923398926,155.59561579589624,37.53265660646593,156.97478991596637,50.24691358024693C159.29296732771996,71.61760412246086,156.85145825689213,134.58580802292516,161.84873949579833,136.66666666666669C163.2195938509769,137.23748787882417,165.30569931921366,131.99454084138628,166.72268907563026,132.34567901234567C168.78886125746905,132.857688303544,169.81232873199886,145.17108689740564,171.5966386554622,145.30864197530866C173.10690514519072,145.42507064160543,175.02375847231298,140.14498055015343,176.47058823529412,136.66666666666669C178.41708944012635,131.98709596787128,179.84836757655523,125.76288965435837,181.34453781512605,119.38271604938274C183.15792253802758,111.64983308830074,184.87107189960398,93.35673304220308,186.21848739495798,93.4567901234568C189.2064072348191,93.67866863029263,184.8719619330437,220.42749917241332,191.09243697478993,223.08641975308643C192.48632173168693,223.68223098009514,194.61378353950695,221.45475736575227,195.96638655462186,218.76543209876547C199.9459830418948,210.85296312890557,197.63177782990664,163.28816609013768,200.8403361344538,162.5925925925926C202.1862719274424,162.30081130699975,204.36395449098393,167.06108167976979,205.71428571428572,171.23456790123458C208.54119959750125,179.97174729639005,209.17595011583006,214.48760021315653,210.58823529411768,214.44444444444446C212.6777531767382,214.38059420240523,213.68682524589317,119.39972024724085,215.46218487394958,119.38271604938274C216.97709973268877,119.36820636267534,218.53006159710702,167.63869585443916,220.33613445378154,188.51851851851853C221.83571237545942,205.85498474128974,223.7263350938024,218.4734990518946,225.21008403361344,236.04938271604942C227.05183026562796,257.8659560218445,227.344981585019,309.2194471291896,230.0840336134454,309.5061728395062C231.43684278430416,309.6477857648583,233.21333008011007,292.29622503123574,234.95798319327733,292.22222222222223C236.49008826980406,292.1572350459686,238.2998276965825,300.5189280178906,239.83193277310923,305.1851851851852C241.57658588627652,310.4987894663063,243.30837289163256,322.58295739973767,244.7058823529412,322.46913580246917C246.88053442455941,322.29201902498215,247.91074639379266,279.26957239987394,249.5798319327731,279.25925925925924C251.16443079741308,279.2494681547728,252.63377491841186,318.0924875132464,254.45378151260505,318.14814814814815C255.94694076730943,318.19381292342507,257.8810421521848,292.16168595045616,259.327731092437,292.22222222222223C261.2747070786143,292.3036928577831,262.6105523398405,339.75981968135517,264.20168067226894,339.7530864197531C265.86286906974203,339.7460566812823,267.253191633984,287.94347790671816,269.07563025210084,287.90123456790127C270.5677011268658,287.8666490104646,271.73911593981416,322.22548522165516,273.94957983193274,322.46913580246917C275.3418332375112,322.6225983186944,276.7573572299259,310.01818213070453,278.8235294117647,309.5061728395062C280.2405191681814,309.1550346685467,282.3157215473598,314.23243772099664,283.69747899159665,313.82716049382714C285.9917892690471,313.15422638995096,287.07525833285774,296.476564296863,288.57142857142856,296.5432098765432C290.38481329433006,296.6239854948019,291.462590910172,315.38021190113545,293.4453781512605,322.46913580246917C294.8820137921264,327.60544116140983,296.88269209022656,335.5572665811908,298.3193277310924,335.4320987654321C300.30211497218085,335.2593471358458,300.9335851632387,309.87976224989575,303.1932773109244,309.5061728395062C304.57908540218045,309.27706055611145,306.6964919222312,314.23134176869445,308.0672268907563,318.14814814814815C310.475941252329,325.03092855014063,310.016911750473,343.0753349205017,312.94117647058823,348.39506172839504C314.289523802142,350.84793112721457,316.43336860618336,353.12132660988556,317.8151260504202,352.71604938271605C320.1094363278706,352.04311527883993,321.19290539168117,335.3654531857519,322.6890756302521,335.4320987654321C324.5024603531536,335.51287438369087,325.86091054831553,361.32733761237097,327.56302521008405,361.358024691358C329.12263808332193,361.3861426345879,330.812324929972,346.95473251028824,332.43697478991595,339.7530864197531C334.06162464985994,332.55144032921817,335.79808042030123,318.10114819294927,337.31092436974785,318.14814814814815C339.09023494621687,318.20342649817854,338.80978138604786,345.52028983098074,342.18487394957987,348.39506172839504C343.53105186535134,349.54168344863893,345.68023651055233,349.3495377908594,347.05882352941177,348.39506172839504C349.3826425699239,346.78614650046626,349.866600927405,335.94410805663045,351.9327731092437,335.4320987654321C353.3497628656604,335.0809605944727,355.3897329326589,337.6931743152838,356.80672268907557,339.7530864197531C358.87289487091425,342.7567306366672,360.27004197179014,352.8574942473419,361.6806722689076,352.71604938271605C363.7787825535299,352.5056704295737,364.97963062563076,322.45362767820455,366.5546218487395,322.46913580246917C368.23585586637864,322.4856900446015,368.87585123016174,356.5547699003072,371.42857142857144,357.03703703703707C372.78945626165887,357.29413925775094,374.85569124542224,348.2215861704277,376.3025210084034,348.39506172839504C378.24902221323566,348.62844812341683,378.5696376062,363.7056223343082,381.17647058823536,365.67901234567904C382.5345480688087,366.7070860862294,384.4257703081232,365.679012345679,386.0504201680672,365.67901234567904C387.6750700280112,365.6790123456791,389.5751330916653,366.75777612226403,390.92436974789916,365.67901234567904C393.8005343069845,363.37941417844587,394.07916581062756,344.1196213995889,395.7983193277311,344.0740740740741C397.3463434380463,344.033060658253,398.37795863011263,360.6850905874818,400.672268907563,361.358024691358C402.0540263517996,361.7633019185275,403.9215686274509,357.037037037037,405.5462184873949,357.03703703703707C407.1708683473388,357.037037037037,408.65960050386707,360.6899771177147,410.4201680672268,361.358024691358C411.94311361095316,361.93590656107494,413.77117210333233,361.93590656107494,415.29411764705884,361.358024691358C417.0546852104186,360.6899771177147,418.751077470474,356.68589886607765,420.16806722689074,357.03703703703707C422.23423940872954,357.5490463282354,422.97584462488385,369.4879907088016,425.0420168067227,370C426.4590065631394,370.3511381709595,428.2913165266108,365.67901234567904,429.91596638655466,365.67901234567904C431.5406162464987,365.67901234567904,433.1652661064425,370,434.78991596638656,370C436.41456582633054,369.99999999999994,438.0392156862744,365.67901234567904,439.66386554621846,365.67901234567904C441.2885154061625,365.679012345679,442.7772475626906,369.3319524263566,444.5378151260504,370C446.0607606697769,370.57788186971703,447.79184965026224,370.9461777231066,449.4117647058824,370C452.6803412223391,368.09085403866635,456.62114402646176,352.5203511524748,459.1596638655462,352.71604938271605C461.2803786722721,352.87953840814436,462.2493035219149,365.5414572677761,464.03361344537814,365.67901234567904C465.5438799351067,365.79544101197575,467.07273085062593,359.3083782193416,468.9075630252101,357.03703703703707C470.394228487899,355.19669188913235,472.36452284862537,352.3649112117566,473.78151260504205,352.71604938271605C475.84768478688085,353.2280586739144,477.03081232492997,365.67901234567904,478.65546218487395,365.67901234567904C480.28011204481794,365.67901234567904,481.7451018412425,352.853604460619,483.52941176470586,352.71604938271605C485.03967825443436,352.5996207164193,486.37107839901904,360.17098661585646,488.4033613445378,361.358024691358C489.8277639394079,362.19000535560673,491.85290832949977,360.5260440271094,493.2773109243698,361.358024691358C495.3095938698885,362.5450627668596,496.5266106442578,370.00000000000006,498.1512605042017,370C499.77591036414566,369.99999999999994,501.1903779094496,363.62936587366255,503.02521008403363,361.358024691358C504.51187554672254,359.5176795434533,506.13859210050583,357.7050846106804,507.89915966386553,357.03703703703707C509.42210520759187,356.45915516732003,511.2501636999711,356.45915516732003,512.7731092436975,357.03703703703707C514.5336768070572,357.7050846106804,516.0224089635853,359.91769547325094,517.6470588235294,361.358024691358C519.2717086834732,362.798353909465,520.8963585434174,365.67901234567904,522.5210084033613,365.67901234567904C524.1456582633052,365.67901234567904,525.7703081232494,361.358024691358,527.3949579831933,361.358024691358C529.0196078431372,361.358024691358,530.8519178066085,366.0301505166385,532.2689075630252,365.67901234567904C534.3350797448641,365.16700305448074,535.5182072829132,352.71604938271605,537.1428571428571,352.71604938271605C538.767507002801,352.71604938271605,539.9506345408503,365.1670030544807,542.0168067226891,365.67901234567904C543.4337964791057,366.03015051663846,545.1301887391612,362.0260722650014,546.890756302521,361.358024691358C548.4137018462475,360.78014282164105,550.2417603386265,361.935906561075,551.7647058823529,361.358024691358C553.5252734457127,360.6899771177147,555.1519899994959,358.87738218494184,556.6386554621848,357.03703703703707C558.473487636769,354.76569585473254,560.0657752790357,348.22158617042766,561.5126050420168,348.39506172839504C563.459106246849,348.62844812341694,564.6419015086814,365.6050095366655,566.3865546218487,365.67901234567904C567.9186596983754,365.74399952193266,569.1943320198418,355.7196935996302,571.2605042016806,352.71604938271605C572.6774939580973,350.6561372782467,574.7526963372757,347.9897845012255,576.1344537815125,348.39506172839504C578.4287640589631,349.06799583227127,579.0619021565122,365.44562595065713,581.0084033613446,365.67901234567904C582.4552331243256,365.8524879036463,584.2577030812325,359.91769547325106,585.8823529411765,357.03703703703707C587.5070028011205,354.156378600823,589.1316526610644,351.27572016460897,590.7563025210085,348.39506172839504C592.3809523809524,345.51440329218104,594.2595171323154,339.50807597672764,595.6302521008404,339.7530864197531C598.0389664624131,340.18362929376036,598.8141002747669,369.9779759669875,600.5042016806723,370C602.072494438101,370.0204367213363,603.5647665376026,344.15484969233285,605.3781512605042,344.0740740740741C606.874321499075,344.00742849439393,608.7925777626549,361.442105984686,610.2521008403362,361.358024691358C612.1584635471986,361.2482015276162,613.2196877133057,331.2209342748529,615.1260504201681,331.1111111111111C616.5855734978496,331.02702981778316,620,348.39506172839504,620,348.39506172839504">
        </path>
        <path stroke="#4e79a7"
            d="M40,369.7532517889245C40,369.7532517889245,43.24946450645516,369.84680099523626,44.87394957983194,369.8334449575241C46.498764293226785,369.8200862096088,48.12306882843827,369.688473646268,49.74789915966386,369.673058620325C51.37236862847992,369.6576470179417,53.012044486685106,369.9494463444147,54.621848739495796,369.74091437837075C56.26190746336522,369.5284632871781,57.855726094845615,368.5983626515584,59.49579831932773,368.38379921745565C61.10559004097351,368.17319724832856,62.76718868448252,368.6980679850017,64.36974789915966,368.43931756494766C66.01775925399986,368.1732284080458,67.5956998747242,367.0489620627559,69.24369747899159,366.7614297296345C70.84626898901452,366.4818230578302,72.56285236399451,367.1830546347508,74.11764705882354,366.6935739715887C75.82670111145498,366.15552935782466,77.2940438233847,363.71195213582723,78.99159663865547,363.3871479431774C80.55445380582434,363.0881159744265,82.26475065206692,364.61705026164196,83.8655462184874,364.46667136663257C85.5155391337863,364.3116708677677,87.09117096917763,362.92180503712694,88.73949579831933,362.37548027776796C90.34177492740186,361.8444170163611,91.98636393878132,361.2311534531066,93.61344537815125,361.2095949804364C95.23567812924632,361.1881007518238,96.96233786912792,362.65648188342846,98.48739495798318,362.2397687616765C100.24420664629301,361.7597300219361,101.66479929453865,357.9628333940333,103.36134453781513,357.77362614121046C104.92492670275251,357.5992475991922,106.86361212886838,361.1121719804569,108.23529411764706,360.5618809263633C110.63269613765567,359.6000917540411,111.32552407898878,349.03700368775236,113.10924369747899,344.1161126581832C114.61981206001678,339.9487860067809,116.45388075979727,332.7448624593341,117.98319327731093,332.82121329620355C119.73259587636342,332.90855211735976,121.22448401453445,348.1576641245876,122.85714285714286,348.16278331982096C124.47393861062842,348.1678527764022,125.27131564122209,334.9453403557091,127.73109243697479,333.1481546758786C129.09789065607842,332.14953147119087,131.1866051569861,333.97521297032836,132.60504201680672,333.12347985477106C134.6643341175454,331.88693043442777,135.82132431619365,324.11694275926993,137.47899159663865,324.08015791885515C139.0731071536205,324.0447833373225,140.88988825914643,332.4029066116262,142.3529411764706,332.2351862948994C144.2489934310528,332.01782813860615,144.76866596492684,319.1461445302595,147.2268907563025,317.0416651979273C148.59380088122558,315.8714572831961,150.65389737813732,317.21315068034005,152.10084033613447,316.2767457435934C154.04696041010553,315.0172928849327,155.5690177350636,313.34189206790495,156.97478991596637,308.8002749480066C163.87895791313272,286.49503374281534,159.5472765928166,93.62667591339572,161.84873949579833,93.58031654270505C163.22970550876227,93.55249914220587,163.54211671256644,170.46194864760574,166.72268907563026,170.93588071486482C168.06868513218254,171.13644546258521,169.927756974159,157.97279788349158,171.5966386554622,157.93841869646445C173.18140318342085,157.90577233410636,175.10793843405125,169.71938782509102,176.47058823529412,169.46772885896576C181.0352267403072,168.62471533791322,176.28164990525835,47.868796025478886,181.34453781512605,29.09267157813104C182.7166532380699,24.004071870618887,184.83080304894057,19.782813714818495,186.21848739495798,20C188.4631668883855,20.351314477243875,189.72987861235057,34.96750788883422,191.09243697478993,46.550107511720526C193.6163836504828,68.0052353212402,193.84117616875812,114.56769079050277,195.96638655462186,139.04367443336037C197.372050665831,155.23266542557445,199.1705290436697,166.2259040249173,200.8403361344538,179.26980154393883C202.42434984282303,191.64351380970209,203.79879219899144,215.31095991673308,205.71428571428572,215.40607705594135C207.17077857696046,215.47840172489418,208.8378010494123,194.96050599965307,210.58823529411768,194.89513201029288C212.11694799076903,194.8380387216601,213.65235798824438,205.72874629465224,215.46218487394958,210.21819591807957C216.9600021839493,213.93367578604554,218.96610574617756,215.67374691886548,220.33613445378154,220.09429306637523C222.75351245473678,227.8942252501952,223.29132792309778,244.37735871830958,225.21008403361344,254.0345094998061C226.66551529287545,261.3597339229453,228.3619763025112,267.1753496555864,230.0840336134454,273.15132715287814C231.63016205839023,278.5167866740254,233.0541812434612,284.1344387701134,234.95798319327733,288.2893299023582C236.41837208118815,291.47650850599166,237.84747415757394,295.02133443064065,239.83193277310923,296.2778032359265C241.26812532796873,297.18713494455375,243.3404614204307,297.68913102611623,244.7058823529412,296.795974479185C247.18531000814468,295.17411781201395,248.17139905664007,281.2654470406842,249.5798319327731,281.38654869752196C251.68968139407966,281.5679604422863,251.23936841423728,311.4983135037729,254.45378151260505,317.3254256406641C255.799708742634,319.7653326026712,257.64586803074246,320.25405531233895,259.327731092437,321.4091085339631C260.90223862664726,322.4904331918866,262.77653216913933,322.597576073285,264.20168067226894,324.11100144523954C266.23073038198936,326.26573500802573,267.38253988128616,331.10698885967594,269.07563025210084,334.30170256265643C270.6417219624644,337.2567808818457,271.96638031259164,341.1055852416883,273.94957983193274,342.6479608022842C275.3861059699952,343.7651770913649,277.1831648475701,343.76843203801224,278.8235294117647,344.0482569001375C280.43304998275244,344.3228201781402,282.28016539523526,345.12744631587566,283.69747899159665,344.3320173428743C285.7620997304127,343.17330472053743,286.8653731309549,335.28440182134534,288.57142857142856,335.18999612252816C290.12828824373287,335.10384626957654,291.6874080884186,340.3252707721984,293.4453781512605,342.3086820120554C294.9697807784666,344.0285732484171,296.60202755709804,345.5187259988021,298.3193277310924,346.5897634742148C299.8685734689413,347.5559895708443,301.5684451823458,347.94371873215846,303.1932773109244,348.6192675103105C304.8177449839916,349.2946647605164,306.41037251307426,350.243239440151,308.0672268907563,350.6426028411294C309.6620389278867,351.0270117352658,311.32435326689773,350.793899011288,312.94117647058823,351.03123127357327C314.57380677166987,351.27088384779825,316.18711593909325,351.7658352978224,317.8151260504202,352.07991117064404C319.436443230924,352.3926958425847,321.06290993705073,352.65442452354404,322.6890756302521,352.9126863830237C324.3122152931289,353.1704676591153,325.98912527027284,353.0802068761975,327.56302521008405,353.6282561951426C329.24568089959564,354.2141754656945,330.8116570917681,355.510356946293,332.43697478991595,356.44735450667986C334.0609579079557,357.3835826800682,335.64471956205995,358.5238531906586,337.31092436974785,359.2479467023864C338.89787828726156,359.9375996368761,340.54306189941923,360.5728675172285,342.18487394957987,360.74694208466985C343.7930574706574,360.91745115772153,345.4416458710408,360.2212238306095,347.05882352941177,360.32130142056474C348.6910856370429,360.4223124981426,350.3037225915886,361.0651175462737,351.9327731092437,361.3638126123586C353.5530694806603,361.66090255922774,355.1837282077915,361.8411755607654,356.80672268907557,362.1102259508619C358.4330347020512,362.37982630166755,360.0814707591996,362.5095427145919,361.6806722689076,362.9800133949029C363.3324720168273,363.46595800314896,364.8960114276406,364.67339447959193,366.5546218487395,365.0156861362755C368.14793257145715,365.3445017279015,369.8151530801082,364.8706146050917,371.42857142857144,365.0712044837675C373.06477223109164,365.274626814237,374.66675033816875,366.08805336226317,376.3025210084034,366.243258486376C377.9163464464311,366.3963814038871,379.5513759501755,366.052017369992,381.17647058823536,366.01501639113116C382.80067615659584,365.97803565506007,384.4333667772032,365.8630363351038,386.0504201680672,366.02118509640803C387.68281128529003,366.18083389626304,389.29579152027065,366.7065188105217,390.92436974789916,366.9773344143255C392.5451288712393,367.2468497824925,394.17005146542715,367.50999459354017,395.7983193277311,367.64355458422926C397.4193831292605,367.7765236559963,399.04746455756464,367.7535644322592,400.672268907563,367.7792661003208C402.2967643361929,367.8049628817666,403.9269542329802,367.6623544315398,405.5462184873949,367.79777221615143C407.1763263249964,367.9340968410198,408.7900625372578,368.4706482672271,410.4201680672268,368.5997039021467C412.03943456849396,368.72790140996625,413.6694951095937,368.58942227713334,415.29411764705884,368.5750290810392C416.9187948313199,368.56063540080663,418.54343980779674,368.51025837149524,420.16806722689074,368.51334202827024C421.79273952892464,368.5164257702361,423.4175489479777,368.5524183272676,425.0420168067227,368.5935351968698C426.66684874945696,368.63466128179374,428.29154865193175,368.6932753791289,429.91596638655466,368.76009023934574C431.5408485045571,368.8269242003825,433.1651092540997,368.92355546975244,434.78991596638656,368.99450103986743C436.4144090345378,369.065432915023,438.0390466802935,369.17545978023185,439.66386554621846,369.185730903451C441.28834647047626,369.195999890407,442.9134666038417,369.03976338758133,444.5378151260504,369.0561880926364C446.16276654746235,369.0726188939457,447.7867638267374,369.26388737951754,449.4117647058824,369.2844301878811C451.0360638497261,369.3049641251026,452.66105369512314,369.1805898743334,454.28571428571433,369.1795621981741C455.91035341529454,369.1785345355898,457.5349632687313,369.2515299768871,459.1596638655462,369.27826148260425C460.7842629949563,369.304991318859,462.4089427674071,369.32349854924024,464.03361344537814,369.33994853537314C465.65824248836213,369.35639809994683,467.2845315160315,369.29800784418455,468.9075630252101,369.37696076703446C470.5338377100264,369.45607145527254,472.1552264890837,369.74304708794625,473.78151260504205,369.81493884169345C475.40453277430964,369.88668622070065,477.03085883601887,369.82213463433123,478.65546218487395,369.80877013641657C480.2801585612336,369.7954048732285,481.9048451390082,369.7265245253271,483.52941176470586,369.73474567309387C485.1541448759568,369.7429676633637,486.77900246161244,369.8745460861047,488.4033613445378,369.85811977863165C490.02830239010734,369.84168758404667,491.65224489311527,369.66893351409857,493.2773109243698,369.6360463886637C494.9015450389937,369.60317609906576,496.5268787514061,369.6268074143156,498.1512605042017,369.66072120977117C499.7761786483881,369.6946462039907,501.40028966122105,369.80671732421615,503.02521008403363,369.83961366280096C504.6495895612231,369.87249904999993,506.27452769446376,369.86326006067736,507.89915966386553,369.85811977863165C509.52382741513964,369.8529793833732,511.14854392895745,369.8354987314577,512.7731092436975,369.80877013641657C514.3978436664478,369.78203875908076,516.0223195205442,369.70904052712933,517.6470588235294,369.69773344143255C519.2716192601245,369.6864276005249,520.8964258603079,369.71726942143096,522.5210084033613,369.74091437837075C524.1457255913547,369.7645612949979,525.7702642174494,369.8344744364774,527.3949579831933,369.83961366280096C529.019563942083,369.8447526113742,530.6442508727487,369.7727858450837,532.2689075630252,369.7717579047552C533.8935505927516,369.7707299730699,535.5181776813206,369.8200794481519,537.1428571428571,369.8334449575241C538.7674774033659,369.84680997987584,540.3921539349767,369.84886672627454,542.0168067226891,369.85195107335477C543.6414536548858,369.8550354093184,545.2670171623354,369.90634963326085,546.890756302521,369.85195107335477C548.516318928879,369.7974914229573,550.1396382579727,369.53935840868775,551.7647058823529,369.5250096936797C553.3889384071169,369.5106683522765,555.0135505132133,369.71418504560484,556.6386554621848,369.7655891994783C558.26285074244,369.81696457936346,559.8879890034034,369.8067146290282,561.5126050420168,369.8334449575241C563.1372887261078,369.86017639901263,564.7618328754893,369.9126109638294,566.3865546218487,369.9259755366773C568.0111326080981,369.93933892698874,569.6358793880343,369.90644176295297,571.2605042016806,369.91363812612354C572.885179109467,369.9208347111888,574.5097775724131,369.9599035657648,576.1344537815125,369.96915647361556C577.7590772940102,369.9784090813469,579.3837616338755,369.9640159630814,581.0084033613446,369.96915647361556C582.6330613539263,369.97429703561386,584.257768124753,370.0102791173403,585.8823529411765,370C587.5070678550587,369.9897200595035,589.1315954152493,369.93008822424156,590.7563025210085,369.90746942084667C592.3808951432044,369.884852211266,594.0055980121482,369.8653165345535,595.6302521008404,369.8642884839085C597.2548977320803,369.86326043861527,598.879579467556,369.9064406209628,600.5042016806723,369.9013007155698C602.1288791893259,369.89616063523516,603.7534828602843,369.8365288995219,605.3781512605042,369.8334449575241C607.0027825810187,369.83036108591085,608.6275241475862,369.89204492573435,610.2521008403362,369.8827945997391C611.876823880657,369.8735434404419,615.1260504201681,369.77792661003207,615.1260504201681,369.77792661003207">
        </path>
    </g>
</svg>
