<svg xmlns="http://www.w3.org/2000/svg" class="plot-e471499f21fe8" fill="currentColor" font-family="system-ui, sans-serif" font-size="10"
    text-anchor="middle" width="640" height="400" viewBox="0 0 640 400"
    style=" display: block; background: transpanret; filter: contrast(0.5); height: auto; height: intrinsic; max-width: 100%;">
    <g aria-label="y-axis" aria-description="↑ cases" transform="translate(40,0)" fill="none" text-anchor="end"
        font-variant="tabular-nums">
        <g class="tick" opacity="1" transform="translate(0,344.93412265819586)">
            <line stroke="currentColor" x2="-6"></line><text fill="currentColor" x="-9" dy="0.32em">2,000</text>
        </g>
        <g class="tick" opacity="1" transform="translate(0,319.66610114428045)">
            <line stroke="currentColor" x2="-6"></line><text fill="currentColor" x="-9" dy="0.32em">4,000</text>
        </g>
        <g class="tick" opacity="1" transform="translate(0,294.3980796303649)">
            <line stroke="currentColor" x2="-6"></line><text fill="currentColor" x="-9" dy="0.32em">6,000</text>
        </g>
        <g class="tick" opacity="1" transform="translate(0,269.1300581164495)">
            <line stroke="currentColor" x2="-6"></line><text fill="currentColor" x="-9" dy="0.32em">8,000</text>
        </g>
        <g class="tick" opacity="1" transform="translate(0,243.86203660253403)">
            <line stroke="currentColor" x2="-6"></line><text fill="currentColor" x="-9" dy="0.32em">10,000</text>
        </g>
        <g class="tick" opacity="1" transform="translate(0,218.59401508861856)">
            <line stroke="currentColor" x2="-6"></line><text fill="currentColor" x="-9" dy="0.32em">12,000</text>
        </g>
        <g class="tick" opacity="1" transform="translate(0,193.3259935747031)">
            <line stroke="currentColor" x2="-6"></line><text fill="currentColor" x="-9" dy="0.32em">14,000</text>
        </g>
        <g class="tick" opacity="1" transform="translate(0,168.05797206078765)">
            <line stroke="currentColor" x2="-6"></line><text fill="currentColor" x="-9" dy="0.32em">16,000</text>
        </g>
        <g class="tick" opacity="1" transform="translate(0,142.78995054687218)">
            <line stroke="currentColor" x2="-6"></line><text fill="currentColor" x="-9" dy="0.32em">18,000</text>
        </g>
        <g class="tick" opacity="1" transform="translate(0,117.5219290329567)">
            <line stroke="currentColor" x2="-6"></line><text fill="currentColor" x="-9" dy="0.32em">20,000</text>
        </g>
        <g class="tick" opacity="1" transform="translate(0,92.25390751904128)">
            <line stroke="currentColor" x2="-6"></line><text fill="currentColor" x="-9" dy="0.32em">22,000</text>
        </g>
        <g class="tick" opacity="1" transform="translate(0,66.9858860051258)">
            <line stroke="currentColor" x2="-6"></line><text fill="currentColor" x="-9" dy="0.32em">24,000</text>
        </g>
        <g class="tick" opacity="1" transform="translate(0,41.71786449121033)">
            <line stroke="currentColor" x2="-6"></line><text fill="currentColor" x="-9" dy="0.32em">26,000</text>
        </g><text fill="currentColor" font-variant="normal" transform="translate(-40,20)" dy="-1em"
            text-anchor="start">↑ cases</text>
    </g>
    <g aria-label="x-axis" transform="translate(0,370)" fill="none" text-anchor="middle" font-variant="tabular-nums">
        <g class="tick" opacity="1" transform="translate(84.61538461538461,0)">
            <line stroke="currentColor" y2="6"></line><text fill="currentColor" y="9" dy="0.71em">Mar 06</text>
        </g>
        <g class="tick" opacity="1" transform="translate(188.7179487179487,0)">
            <line stroke="currentColor" y2="6"></line><text fill="currentColor" y="9" dy="0.71em">Mar 13</text>
        </g>
        <g class="tick" opacity="1" transform="translate(292.8205128205128,0)">
            <line stroke="currentColor" y2="6"></line><text fill="currentColor" y="9" dy="0.71em">Mar 20</text>
        </g>
        <g class="tick" opacity="1" transform="translate(396.9230769230769,0)">
            <line stroke="currentColor" y2="6"></line><text fill="currentColor" y="9" dy="0.71em">Mar 27</text>
        </g>
        <g class="tick" opacity="1" transform="translate(501.02564102564105,0)">
            <line stroke="currentColor" y2="6"></line><text fill="currentColor" y="9" dy="0.71em">Apr 03</text>
        </g>
        <g class="tick" opacity="1" transform="translate(605.1282051282051,0)">
            <line stroke="currentColor" y2="6"></line><text fill="currentColor" y="9" dy="0.71em">Apr 10</text>
        </g>
    </g>
    <g aria-label="line" fill="none" stroke="coral" stroke-width="1.5" stroke-linejoin="round" stroke-linecap="round">
        <path
            d="M40,370C40,370,49.91456211191539,369.98736566101076,54.87179487179487,369.9620979677291C59.82909202728182,369.9368299462142,64.786467412152,369.9094531665042,69.74358974358974,369.8483918709165C74.7009973430978,369.7873270614277,79.65796270421848,369.6525647709069,84.61538461538461,369.59571165577734C89.57249263862342,369.5388621404033,94.5299373359968,369.5430697214841,99.48717948717947,369.5072735804787C104.44446725094642,369.47147711010587,109.40176529467418,369.4335743534474,114.35897435897435,369.3809334729091C119.31629521172496,369.328291405283,124.27341483709681,369.2124788564958,129.23076923076923,369.19142331155473C134.1879447580805,369.1703685263191,139.14531658565977,369.2609101558841,144.1025641025641,369.2545933653395C149.0598465004351,369.24827653034765,154.0172102689872,369.1324676562867,158.97435897435895,369.15352127928384C163.93174019442299,369.1745758897997,168.8935534085357,369.5613666683979,173.84615384615387,369.3809334729091C178.80810094565717,369.2001597597281,183.7562600407759,368.2224517350672,188.7179487179487,368.06699635418545C193.67080568955407,367.9118176807398,198.63384794468215,368.5153763281415,203.5897435897436,368.4460166768942C208.54837937382953,368.37661867635535,213.50336593485537,367.69000654195503,218.46153846153845,367.6500739992059C223.41789651352528,367.6101560700243,228.37983281107105,368.3275392388257,233.33333333333331,368.205970472512C238.29437419495338,368.084216651256,243.249012167991,367.3720086350155,248.2051282051282,366.9173013753023C253.16354314862681,366.4623831985314,258.1219683557645,366.00105001629186,263.0769230769231,365.47702414900914C268.0365025848992,364.95250917374057,273.01033498912767,364.5750938570801,277.9487179487179,363.77143269681983C282.925157041618,362.96157836837045,287.84444065141673,361.4417824888219,292.8205128205128,360.6255640183374C297.7592517117728,359.81546927554376,302.7297957349147,359.3518956119034,307.69230769230774,358.8820705338772C312.64434777049075,358.4132368794504,317.6036125375481,357.9912647015532,322.56410256410254,357.8081796195358C327.5181508228871,357.6253322945896,332.62359852646347,358.98728564910084,337.4358974358974,357.7829115980219C342.5573528459637,356.5011649493359,347.36539439084066,352.5733011819768,352.30769230769226,349.8740208641663C357.2801072714649,347.1582918511632,362.1187539616202,343.8074148902348,367.1794871794872,341.5355737645743C372.04125958267457,339.35304921454116,377.258865809684,338.838851095749,382.05128205128204,336.39353138649244C387.198724684437,333.7670602519809,392.0410428770475,329.70792985003993,396.9230769230769,325.9831065227593C401.96043598130234,322.1397755768747,407.0839158071617,318.4892945174782,411.7948717948718,313.63967801321155C417.0597770748016,308.21980748044535,421.0199877564331,296.4795215903613,426.66666666666663,294.6254918239902C431.18291962905704,293.1426259557791,436.8986831702396,296.1047876846644,441.53846153846155,298.7820813630293C446.9233766537604,301.889341678622,451.7456074579382,313.8384252357846,456.4102564102564,313.3238277442876C461.75112625765655,312.7346305176629,466.3741751550049,298.22779415538486,471.2820512820513,290.4689022849511C476.29075521074253,282.5506111162785,480.4729067048722,272.15255249180234,486.1538461538462,266.274771685377C490.6564999831179,261.6161034328136,496.8514608032104,262.20589726667646,501.02564102564105,256.42024329495C508.4809076817089,246.08681473161883,510.75001991822785,219.0368236104347,515.8974358974358,201.4875645236978C520.6898721589674,185.14854977338155,525.5083436805389,169.06229622977983,530.7692307692308,154.45114247554417C535.4827657575001,141.36015928611124,539.6744216895704,127.01337789150902,545.6410256410256,117.74934122658195C550.0477245917676,110.90728819555851,555.9971805416956,108.57820172413594,560.5128205128206,102.08316788795436C566.1610161587463,93.95913185579894,569.7982575128909,80.04111549155904,575.3846153846155,71.7362740497419C579.9261088780654,64.98475826106541,585.2037253176098,60.34417557494105,590.2564102564103,55.07201386131467C595.1250789640053,49.991861612081564,600.7168382210446,39.73695763564409,605.1282051282051,40.618705555355C611.0787740219458,41.808110529725944,620,75.299065083204,620,75.299065083204">
        </path>
    </g>
    <g aria-label="line" fill="none" stroke="#4e79a7" stroke-width="1.5" stroke-linejoin="round" stroke-linecap="round">
        <path
            d="M40,369.0297948997412L54.87179487179487,368.8453146981315L69.74358974358974,368.63180479898375L84.61538461538461,368.3846971059287L99.48717948717947,368.09870468960173L114.35897435897435,367.76770867249957L129.23076923076923,367.3846273141036L144.1025641025641,366.94126449531404L158.97435897435895,366.42813436048294L173.84615384615387,365.8342583652188L188.7179487179487,365.14693038775135L203.5897435897436,364.35144487835765L218.46153846153845,363.43078223053845L233.33333333333331,362.365244642386L248.2051282051282,361.13203467730835L263.0769230769231,359.704767507312L277.9487179487179,358.0529064031722L292.8205128205128,356.1411093936628L307.69230769230774,353.92847311546177L322.56410256410254,351.367657675716L337.4358974358974,348.4038738034874L352.30769230769226,344.9737106199371L367.1794871794872,341.0037789471073L382.05128205128204,336.4091411285572L396.9230769230769,331.09149376748746L411.7948717948718,324.9370645015883L426.66666666666663,317.81417781559776L441.53846153846155,309.5704378115361L456.4102564102564,300.0294676612977L471.2820512820513,288.9871359813938L486.1538461538462,276.2071893922136L501.02564102564105,261.41619781934327L515.8974358974358,244.2977043904316L530.7692307692308,224.48545476322016L545.6410256410256,201.55556102455716L560.5128205128206,175.01743250510688L575.3846153846155,144.30327947231845L590.2564102564103,108.75596513061096L605.1282051282051,67.6149460193487L620,20">
        </path>
    </g>
    <g aria-label="text" transform="translate(40,-20)">
        <text transform="translate(99.48717948717947,369.5072735804787)">
            <tspan x="0" y="-0.18em">探索更智慧的动态清零</tspan>
            <tspan x="0" y="0.8200000000000001em">模式，要避免一刀切</tspan>
        </text>
        <text transform="translate(203.5897435897436,368.4460166768942)">
            <tspan x="0" y="-0.18em">不意味着上海需要采取</tspan>
            <tspan x="0" y="0.8200000000000001em">封城和全检测的策略</tspan>
        </text>
    </g>
    <g aria-label="text" transform="translate(70,0)">
        <text y="0.32em" transform="translate(352.30769230769226,350.8740208641663)">形成拐点的条件已经具备</text>
        <text y="0.32em" transform="translate(367.1794871794872,340.5355737645743)">指数级上升趋势已被打断</text>
    </g>
    <g aria-label="dot" fill="coral">
        <circle cx="99.48717948717947" cy="369.5072735804787" r="3"></circle>
        <circle cx="203.5897435897436" cy="368.4460166768942" r="3"></circle>
        <circle cx="352.30769230769226" cy="349.8740208641663" r="3"></circle>
        <circle cx="367.1794871794872" cy="341.5355737645743" r="3"></circle>
    </g>
</svg>
