<?xml version="1.0" standalone="no"?>
<!DOCTYPE svg PUBLIC "-//W3C//DTD SVG 20010904//EN"
 "http://www.w3.org/TR/2001/REC-SVG-20010904/DTD/svg10.dtd">
<svg version="1.0" xmlns="http://www.w3.org/2000/svg"
 width="500.000000pt" height="500.000000pt" viewBox="0 0 500.000000 500.000000"
 preserveAspectRatio="xMidYMid meet">
<metadata>
Created by potrace 1.14, written by Peter Selinger 2001-2017
</metadata>
<g transform="translate(0.000000,500.000000) scale(0.100000,-0.100000)"
fill="#000000" stroke="none">
<path d="M4702 4287 c-23 -12 -80 -52 -125 -88 -45 -37 -97 -74 -115 -83 -45
-23 -198 -131 -257 -181 -27 -24 -79 -60 -115 -81 -36 -20 -76 -46 -90 -56
-14 -11 -61 -42 -105 -70 -44 -28 -98 -66 -119 -85 -46 -38 -193 -116 -250
-132 -29 -8 -46 -7 -71 3 -40 17 -275 71 -370 85 -100 15 -342 21 -465 11
-173 -13 -439 -82 -750 -195 l-75 -27 -180 85 c-99 47 -207 101 -240 121 -32
20 -94 51 -137 68 -43 18 -100 49 -128 70 -27 20 -69 47 -92 59 -24 12 -51 29
-61 38 -11 9 -69 41 -130 72 -99 49 -295 153 -337 178 -8 5 -71 28 -138 50
l-124 40 -29 -32 c-16 -17 -29 -37 -29 -45 0 -7 -21 -65 -46 -129 -57 -145
-68 -180 -99 -326 -24 -111 -25 -134 -25 -430 0 -391 5 -437 75 -767 39 -184
101 -411 151 -555 43 -125 105 -247 139 -275 34 -28 36 -47 16 -167 -11 -65
-22 -152 -25 -193 -3 -41 -9 -87 -12 -102 -5 -22 -1 -29 25 -43 17 -9 35 -14
39 -11 7 4 2370 21 2461 17 25 -1 70 -12 100 -26 84 -37 140 -46 254 -39 118
6 157 14 327 62 l125 35 619 5 c557 3 620 2 628 -12 12 -21 41 -20 61 2 14 16
17 44 17 178 0 186 -22 327 -68 444 -16 41 -49 132 -72 202 l-42 127 40 88
c52 114 107 295 131 427 7 37 11 237 11 525 0 515 -1 531 -66 741 -54 178
-135 414 -146 428 -15 18 -38 15 -86 -11z m-73 -214 c-38 -86 -83 -172 -124
-243 -18 -30 -68 -129 -111 -220 -42 -91 -110 -223 -151 -293 -40 -71 -73
-132 -73 -135 0 -4 -9 -18 -19 -31 l-19 -25 -47 38 c-52 43 -211 142 -352 220
-51 27 -93 54 -93 58 0 4 12 14 28 22 15 8 63 40 107 72 44 32 105 74 136 93
63 41 160 107 299 204 52 37 119 84 149 104 30 21 92 66 137 100 83 63 144
103 156 103 4 0 -7 -30 -23 -67z m162 -38 c45 -129 104 -362 124 -490 20 -124
35 -417 29 -545 -6 -121 -34 -375 -49 -440 -23 -102 -77 -275 -100 -320 l-23
-45 -20 45 c-41 96 -133 296 -149 325 -52 96 -72 128 -126 200 -33 44 -107
128 -165 187 l-105 106 13 32 c7 18 34 67 60 109 25 42 67 117 93 166 83 160
318 648 344 713 14 35 29 60 34 55 5 -5 23 -49 40 -98z m-4360 -217 c19 -31
68 -105 110 -165 42 -59 100 -148 128 -198 29 -49 66 -108 81 -130 16 -23 77
-153 135 -290 89 -208 105 -252 96 -269 -6 -12 -38 -57 -70 -101 -118 -160
-270 -413 -315 -525 -10 -25 -26 -63 -36 -85 -15 -33 -77 -218 -122 -362 -5
-18 -11 -33 -12 -33 -2 0 -18 24 -36 52 -40 65 -93 202 -121 311 -11 45 -26
100 -34 122 -54 161 -111 421 -119 540 -3 44 -9 94 -15 110 -22 69 -29 521
-10 673 5 42 13 115 19 162 10 87 68 278 110 360 l23 44 77 -80 c42 -44 92
-105 111 -136z m144 116 c214 -108 348 -183 449 -252 43 -29 205 -116 360
-193 155 -77 285 -144 289 -148 8 -8 -36 -38 -133 -94 -81 -45 -283 -203 -379
-296 -51 -50 -97 -91 -102 -91 -12 0 -35 47 -74 149 -86 224 -117 289 -194
411 -33 52 -74 118 -90 145 -66 111 -242 356 -300 418 -55 58 -18 48 174 -49z
m2490 -434 c246 -30 498 -114 645 -216 25 -17 70 -44 100 -59 115 -58 292
-188 408 -300 95 -91 212 -241 258 -330 17 -33 61 -118 99 -190 37 -71 76
-154 86 -183 10 -29 29 -78 43 -110 117 -273 189 -522 206 -715 5 -61 10 -122
10 -134 l0 -22 -580 1 c-320 1 -583 4 -585 7 -2 4 5 31 15 61 48 139 -1 274
-124 337 -47 24 -63 27 -196 31 -127 3 -160 1 -262 -21 -153 -33 -237 -73
-310 -149 -51 -53 -58 -66 -74 -133 -14 -59 -15 -82 -7 -110 9 -27 9 -37 0
-40 -55 -16 -2004 -26 -2220 -11 l-127 9 0 43 c0 44 43 287 59 334 5 14 21 68
36 120 36 131 67 212 142 375 85 186 107 228 163 305 26 36 57 83 69 105 59
109 192 260 348 395 206 178 231 198 266 216 17 9 43 27 57 39 14 13 88 55
165 94 151 76 382 157 542 190 51 11 96 22 101 25 8 5 176 32 237 38 86 9 351
7 430 -2z m415 -1910 c0 -6 -12 -29 -27 -51 -19 -29 -31 -38 -42 -33 -9 4 -61
18 -115 32 -107 27 -108 32 -11 52 60 12 195 12 195 0z m169 -43 c75 -69 65
-220 -21 -292 -35 -30 -58 -32 -58 -6 0 33 -39 147 -60 173 l-20 26 43 66 c37
57 45 65 67 60 14 -3 36 -15 49 -27z m-539 -52 c73 -9 230 -47 230 -55 0 -11
-36 -33 -183 -110 -222 -116 -247 -119 -247 -30 0 82 11 111 60 162 37 39 52
48 71 44 13 -3 44 -7 69 -11z m350 -175 c18 -36 30 -75 30 -99 l0 -39 -63 -11
c-72 -12 -341 -14 -372 -2 -19 8 -19 8 3 15 29 10 288 152 322 177 14 10 31
19 37 19 7 0 26 -27 43 -60z"/>
<path d="M3780 2852 c0 -21 16 -46 57 -91 45 -50 53 -65 42 -72 -8 -5 -42 -25
-76 -45 -75 -43 -127 -93 -172 -168 -53 -89 -71 -156 -78 -291 -6 -119 -5
-121 27 -199 27 -65 47 -93 104 -151 111 -111 192 -140 380 -134 109 4 115 5
199 47 68 34 97 55 141 106 87 99 109 156 117 309 4 71 4 140 -1 155 -45 154
-194 292 -387 360 -123 44 -134 49 -253 140 -45 34 -86 62 -91 62 -5 0 -9 -13
-9 -28z m214 -216 c17 -13 50 -33 73 -45 83 -42 221 -140 250 -178 37 -48 83
-122 118 -191 24 -45 27 -60 21 -104 -21 -156 -123 -279 -277 -333 -89 -32
-272 -20 -354 22 -61 32 -141 121 -175 195 -30 66 -33 81 -32 156 3 153 48
277 128 357 18 19 64 52 101 74 38 22 77 46 88 55 26 20 23 20 59 -8z"/>
<path d="M3925 2406 c-41 -19 -101 -83 -121 -131 -22 -50 -22 -163 0 -223 19
-52 54 -96 110 -137 37 -27 48 -30 116 -30 87 0 195 33 227 68 12 12 31 42 43
67 20 39 22 55 18 140 -7 131 -27 174 -104 220 -55 33 -64 35 -159 38 -69 1
-109 -2 -130 -12z m230 -85 c57 -27 72 -48 84 -115 25 -134 6 -189 -78 -225
-62 -26 -150 -28 -189 -4 -41 25 -82 65 -97 93 -13 24 -20 88 -17 142 2 33 81
114 125 128 44 13 124 4 172 -19z"/>
<path d="M4010 2223 c-39 -26 -49 -45 -50 -85 0 -53 15 -85 52 -108 50 -30
100 -26 137 11 45 45 40 121 -11 177 -26 27 -92 30 -128 5z"/>
<path d="M2294 2731 c-24 -23 -62 -45 -95 -56 -30 -9 -96 -33 -148 -52 -51
-19 -134 -43 -185 -53 -112 -24 -266 -64 -325 -84 -51 -19 -127 -73 -170 -122
-39 -44 -93 -151 -115 -228 -10 -33 -28 -75 -41 -94 -34 -50 -14 -82 41 -62
23 9 27 6 62 -53 72 -122 270 -288 399 -337 253 -95 453 -74 629 66 84 67 163
281 148 402 -9 84 -62 257 -102 337 -41 83 -115 190 -137 198 -23 9 -18 25 14
41 42 22 104 137 74 136 -5 0 -26 -18 -49 -39z m-104 -174 c26 -20 105 -137
137 -202 17 -33 45 -112 63 -175 31 -108 32 -119 22 -180 -26 -155 -82 -266
-156 -314 -98 -64 -280 -92 -396 -61 -84 21 -192 69 -244 107 -101 72 -187
161 -231 236 -25 42 -45 86 -45 97 0 55 139 235 221 286 53 33 92 48 309 122
41 14 118 41 170 61 104 38 127 42 150 23z"/>
<path d="M1962 2349 c-99 -17 -160 -60 -196 -139 -22 -46 -26 -70 -26 -146 0
-82 3 -94 28 -135 40 -62 104 -116 154 -130 24 -6 78 -9 120 -7 97 6 176 43
219 103 26 36 30 52 36 137 7 106 -4 151 -54 231 -44 70 -164 107 -281 86z"/>
</g>
</svg>
